# xmcd
#
# Track frame offsets: 
#        150
#        16846
#        32224
#        40843
#        53666
#        66239
#        81350
#        91406
#        101046
#        117928
#
# Disc length: 1731 seconds
#
# Revision: 0
# Processed by: cddbd v1.5.2PL0 Copyright (c) Steve Scherf et al.
# Submitted via: ExactAudioCopy v0.95b4
#
DISCID=7d06c10a
DTITLE=Various Artist - Ain't Nothin' Wrong With Rednecks
DYEAR=2007
DGENRE=Country
TTITLE0=Charlie Daniels Band - (What This World Needs Is) A Few More R
TTITLE0=ednecks
TTITLE1=Ty England - Redneck Son
TTITLE2=BR5-49 - Hillbilly Thang
TTITLE3=Shenandoah - If Bubba Can Dance (I Can Too)
TTITLE4=Jerry Reed - (I'm Just A) Redneck In A Rock And Roll Bar
TTITLE5=David Allen Coe - Long Haired Redneck
TTITLE6=Charlie Walker - I Wouldn't Take Her To A Dog Fight (I'm Afrai
TTITLE6=d She'd Win)
TTITLE7=Waylon Jennings - Theme From Dukes Of Hazzard (Good Ol' Boys)
TTITLE8=Diamond Rio - Bubba Hyde
TTITLE9=Dan Hicks And His Hot Licks - How Can I Miss You When You Won'
TTITLE9=t Go Away?
EXTD=
EXTT0=
EXTT1=
EXTT2=
EXTT3=
EXTT4=
EXTT5=
EXTT6=
EXTT7=
EXTT8=
EXTT9=
PLAYORDER=
